<mxfile host="65bd71144e">
    <diagram id="h5HP5lQ0RciIR4XBi29Y" name="IAM">
        <mxGraphModel dx="1729" dy="1167" grid="1" gridSize="10" guides="1" tooltips="1" connect="1" arrows="1" fold="1" page="1" pageScale="1" pageWidth="827" pageHeight="1169" math="0" shadow="0">
            <root>
                <mxCell id="0"/>
                <mxCell id="1" parent="0"/>
                <mxCell id="35" value="" style="rounded=0;whiteSpace=wrap;html=1;fontColor=#FFFFFF;fillColor=none;" parent="1" vertex="1">
                    <mxGeometry x="491" y="576" width="269" height="254" as="geometry"/>
                </mxCell>
                <mxCell id="9" style="edgeStyle=none;html=1;startArrow=classicThin;startFill=0;strokeColor=default;" parent="1" source="2" target="5" edge="1">
                    <mxGeometry relative="1" as="geometry"/>
                </mxCell>
                <mxCell id="2" value="&lt;span style=&quot;color: rgb(240 , 240 , 240)&quot;&gt;Data Encryption: &lt;br&gt;AWS Key Management Service (KMS)&lt;/span&gt;" style="sketch=0;outlineConnect=0;fontColor=#232F3E;gradientColor=none;fillColor=#BF0816;strokeColor=none;dashed=0;verticalLabelPosition=bottom;verticalAlign=top;align=center;html=1;fontSize=12;fontStyle=0;aspect=fixed;pointerEvents=1;shape=mxgraph.aws4.data_encryption_key;" parent="1" vertex="1">
                    <mxGeometry x="175" y="320" width="62" height="78" as="geometry"/>
                </mxCell>
                <mxCell id="5" value="&lt;span style=&quot;color: rgb(240 , 240 , 240)&quot;&gt;Network Security Controls&amp;nbsp;&lt;/span&gt;&lt;br style=&quot;color: rgb(240 , 240 , 240)&quot;&gt;&lt;span style=&quot;color: rgb(240 , 240 , 240)&quot;&gt;Amazon Virtual Private Cloud (VPC)&lt;/span&gt;" style="sketch=0;points=[[0,0,0],[0.25,0,0],[0.5,0,0],[0.75,0,0],[1,0,0],[0,1,0],[0.25,1,0],[0.5,1,0],[0.75,1,0],[1,1,0],[0,0.25,0],[0,0.5,0],[0,0.75,0],[1,0.25,0],[1,0.5,0],[1,0.75,0]];outlineConnect=0;fontColor=#232F3E;gradientColor=#945DF2;gradientDirection=north;fillColor=#5A30B5;strokeColor=#ffffff;dashed=0;verticalLabelPosition=bottom;verticalAlign=top;align=center;html=1;fontSize=12;fontStyle=0;aspect=fixed;shape=mxgraph.aws4.resourceIcon;resIcon=mxgraph.aws4.client_vpn;" parent="1" vertex="1">
                    <mxGeometry x="455" y="320" width="78" height="78" as="geometry"/>
                </mxCell>
                <mxCell id="16" style="edgeStyle=none;html=1;startArrow=classicThin;startFill=0;strokeColor=default;" parent="1" source="14" target="2" edge="1">
                    <mxGeometry relative="1" as="geometry"/>
                </mxCell>
                <mxCell id="14" value="" style="sketch=0;outlineConnect=0;fontColor=#232F3E;gradientColor=none;fillColor=#BF0816;strokeColor=none;dashed=0;verticalLabelPosition=bottom;verticalAlign=top;align=center;html=1;fontSize=12;fontStyle=0;aspect=fixed;pointerEvents=1;shape=mxgraph.aws4.permissions;" parent="1" vertex="1">
                    <mxGeometry x="304" y="120" width="62" height="78" as="geometry"/>
                </mxCell>
                <mxCell id="17" style="edgeStyle=none;html=1;startArrow=classicThin;startFill=0;strokeColor=default;entryX=0;entryY=0;entryDx=0;entryDy=0;entryPerimeter=0;" parent="1" source="15" target="5" edge="1">
                    <mxGeometry relative="1" as="geometry"/>
                </mxCell>
                <mxCell id="15" value="&lt;span style=&quot;color: rgb(240 , 240 , 240)&quot;&gt;Permissions management:&lt;/span&gt;&lt;br style=&quot;color: rgb(240 , 240 , 240)&quot;&gt;&lt;span style=&quot;color: rgb(240 , 240 , 240)&quot;&gt;AWS Identity and Access Management (IAM)&lt;/span&gt;" style="sketch=0;outlineConnect=0;fontColor=#232F3E;gradientColor=none;fillColor=#BF0816;strokeColor=none;dashed=0;verticalLabelPosition=bottom;verticalAlign=top;align=center;html=1;fontSize=12;fontStyle=0;aspect=fixed;pointerEvents=1;shape=mxgraph.aws4.encrypted_data;" parent="1" vertex="1">
                    <mxGeometry x="334" y="120" width="62" height="78" as="geometry"/>
                </mxCell>
                <mxCell id="39" style="edgeStyle=none;html=1;" parent="1" source="18" edge="1">
                    <mxGeometry relative="1" as="geometry">
                        <mxPoint x="290" y="600" as="targetPoint"/>
                    </mxGeometry>
                </mxCell>
                <mxCell id="40" style="edgeStyle=none;html=1;" parent="1" source="18" edge="1">
                    <mxGeometry relative="1" as="geometry">
                        <mxPoint x="280" y="810" as="targetPoint"/>
                    </mxGeometry>
                </mxCell>
                <mxCell id="18" value="&lt;font color=&quot;#ffffff&quot;&gt;Corporate Identity Provider&lt;/font&gt;" style="sketch=0;points=[[0,0,0],[0.25,0,0],[0.5,0,0],[0.75,0,0],[1,0,0],[0,1,0],[0.25,1,0],[0.5,1,0],[0.75,1,0],[1,1,0],[0,0.25,0],[0,0.5,0],[0,0.75,0],[1,0.25,0],[1,0.5,0],[1,0.75,0]];outlineConnect=0;fontColor=#232F3E;gradientColor=#F54749;gradientDirection=north;fillColor=#C7131F;strokeColor=#ffffff;dashed=0;verticalLabelPosition=bottom;verticalAlign=top;align=center;html=1;fontSize=12;fontStyle=0;aspect=fixed;shape=mxgraph.aws4.resourceIcon;resIcon=mxgraph.aws4.directory_service;" parent="1" vertex="1">
                    <mxGeometry x="140" y="660" width="78" height="78" as="geometry"/>
                </mxCell>
                <mxCell id="23" value="" style="aspect=fixed;html=1;points=[];align=center;image;fontSize=12;image=img/lib/azure2/identity/Groups.svg;fontColor=#FFFFFF;" parent="1" vertex="1">
                    <mxGeometry x="281" y="520" width="68" height="56.00000000000001" as="geometry"/>
                </mxCell>
                <mxCell id="24" value="" style="aspect=fixed;html=1;points=[];align=center;image;fontSize=12;image=img/lib/azure2/identity/Groups.svg;fontColor=#FFFFFF;" parent="1" vertex="1">
                    <mxGeometry x="301" y="543" width="68" height="56.00000000000001" as="geometry"/>
                </mxCell>
                <mxCell id="37" style="edgeStyle=none;html=1;entryX=0.009;entryY=0.467;entryDx=0;entryDy=0;entryPerimeter=0;fontColor=#FFFFFF;startArrow=classicThin;startFill=0;strokeColor=default;" parent="1" source="25" target="30" edge="1">
                    <mxGeometry relative="1" as="geometry"/>
                </mxCell>
                <mxCell id="25" value="Corporate Identities&lt;br&gt;(administrators)" style="aspect=fixed;html=1;points=[];align=center;image;fontSize=12;image=img/lib/azure2/identity/Groups.svg;fontColor=#FFFFFF;" parent="1" vertex="1">
                    <mxGeometry x="321" y="563" width="68" height="56.00000000000001" as="geometry"/>
                </mxCell>
                <mxCell id="26" value="" style="aspect=fixed;html=1;points=[];align=center;image;fontSize=12;image=img/lib/azure2/identity/Groups.svg;fontColor=#FFFFFF;" parent="1" vertex="1">
                    <mxGeometry x="281" y="780" width="68" height="56.00000000000001" as="geometry"/>
                </mxCell>
                <mxCell id="27" value="" style="aspect=fixed;html=1;points=[];align=center;image;fontSize=12;image=img/lib/azure2/identity/Groups.svg;fontColor=#FFFFFF;" parent="1" vertex="1">
                    <mxGeometry x="301" y="803" width="68" height="56.00000000000001" as="geometry"/>
                </mxCell>
                <mxCell id="38" style="edgeStyle=none;html=1;fontColor=#FFFFFF;startArrow=classicThin;startFill=0;strokeColor=default;" parent="1" source="28" target="34" edge="1">
                    <mxGeometry relative="1" as="geometry"/>
                </mxCell>
                <mxCell id="28" value="Corporate Identities&lt;br&gt;(developers)" style="aspect=fixed;html=1;points=[];align=center;image;fontSize=12;image=img/lib/azure2/identity/Groups.svg;fontColor=#FFFFFF;" parent="1" vertex="1">
                    <mxGeometry x="321" y="823" width="68" height="56.00000000000001" as="geometry"/>
                </mxCell>
                <mxCell id="29" value="&lt;font color=&quot;#ffffff&quot;&gt;AWS account&lt;/font&gt;" style="sketch=0;outlineConnect=0;fontColor=#232F3E;gradientColor=none;fillColor=#BF0816;strokeColor=none;dashed=0;verticalLabelPosition=bottom;verticalAlign=top;align=center;html=1;fontSize=12;fontStyle=0;aspect=fixed;pointerEvents=1;shape=mxgraph.aws4.organizations_account;" parent="1" vertex="1">
                    <mxGeometry x="499.64" y="580" width="30.36" height="32" as="geometry"/>
                </mxCell>
                <mxCell id="30" value="&lt;font color=&quot;#ffffff&quot;&gt;IAM role: &lt;br&gt;administrator&lt;/font&gt;" style="sketch=0;outlineConnect=0;fontColor=#232F3E;gradientColor=none;fillColor=#BF0816;strokeColor=none;dashed=0;verticalLabelPosition=bottom;verticalAlign=top;align=center;html=1;fontSize=12;fontStyle=0;aspect=fixed;pointerEvents=1;shape=mxgraph.aws4.role;" parent="1" vertex="1">
                    <mxGeometry x="533" y="640" width="53.18" height="30" as="geometry"/>
                </mxCell>
                <mxCell id="32" value="" style="sketch=0;outlineConnect=0;fontColor=#232F3E;gradientColor=none;fillColor=#BF0816;strokeColor=none;dashed=0;verticalLabelPosition=bottom;verticalAlign=top;align=center;html=1;fontSize=12;fontStyle=0;aspect=fixed;pointerEvents=1;shape=mxgraph.aws4.temporary_security_credential;" parent="1" vertex="1">
                    <mxGeometry x="611.1" y="753" width="29.62" height="30" as="geometry"/>
                </mxCell>
                <mxCell id="33" value="" style="sketch=0;outlineConnect=0;fontColor=#232F3E;gradientColor=none;fillColor=#BF0816;strokeColor=none;dashed=0;verticalLabelPosition=bottom;verticalAlign=top;align=center;html=1;fontSize=12;fontStyle=0;aspect=fixed;pointerEvents=1;shape=mxgraph.aws4.temporary_security_credential;" parent="1" vertex="1">
                    <mxGeometry x="602.08" y="640" width="29.62" height="30" as="geometry"/>
                </mxCell>
                <mxCell id="34" value="&lt;font color=&quot;#ffffff&quot;&gt;IAM role: &lt;br&gt;developer&lt;/font&gt;" style="sketch=0;outlineConnect=0;fontColor=#232F3E;gradientColor=none;fillColor=#BF0816;strokeColor=none;dashed=0;verticalLabelPosition=bottom;verticalAlign=top;align=center;html=1;fontSize=12;fontStyle=0;aspect=fixed;pointerEvents=1;shape=mxgraph.aws4.role;" parent="1" vertex="1">
                    <mxGeometry x="540" y="750" width="53.18" height="30" as="geometry"/>
                </mxCell>
                <mxCell id="36" value="Temporary security credentials" style="text;html=1;strokeColor=none;fillColor=none;align=center;verticalAlign=middle;whiteSpace=wrap;rounded=0;fontColor=#FFFFFF;" parent="1" vertex="1">
                    <mxGeometry x="630" y="700" width="110" height="30" as="geometry"/>
                </mxCell>
                <mxCell id="41" value="&lt;h2&gt;Federated Access to AWS&lt;/h2&gt;" style="text;html=1;strokeColor=none;fillColor=none;align=center;verticalAlign=middle;whiteSpace=wrap;rounded=0;" parent="1" vertex="1">
                    <mxGeometry x="209" y="930" width="321" height="30" as="geometry"/>
                </mxCell>
            </root>
        </mxGraphModel>
    </diagram>
    <diagram id="4UVup8vjro2dyPauXuV1" name="Serverless DR">
        <mxGraphModel dx="2556" dy="1167" grid="1" gridSize="10" guides="1" tooltips="1" connect="1" arrows="1" fold="1" page="1" pageScale="1" pageWidth="827" pageHeight="1169" math="0" shadow="0">
            <root>
                <mxCell id="DzoBdhxqbXTC1pfXNYi0-0"/>
                <mxCell id="DzoBdhxqbXTC1pfXNYi0-1" parent="DzoBdhxqbXTC1pfXNYi0-0"/>
                <mxCell id="DzoBdhxqbXTC1pfXNYi0-32" value="" style="rounded=0;whiteSpace=wrap;html=1;dashed=1;fillColor=none;dashPattern=1 1;" vertex="1" parent="DzoBdhxqbXTC1pfXNYi0-1">
                    <mxGeometry x="10" y="130" width="860" height="660" as="geometry"/>
                </mxCell>
                <mxCell id="DzoBdhxqbXTC1pfXNYi0-22" style="edgeStyle=none;html=1;entryX=0.5;entryY=0;entryDx=0;entryDy=0;entryPerimeter=0;" edge="1" parent="DzoBdhxqbXTC1pfXNYi0-1" source="DzoBdhxqbXTC1pfXNYi0-2" target="DzoBdhxqbXTC1pfXNYi0-6">
                    <mxGeometry relative="1" as="geometry"/>
                </mxCell>
                <mxCell id="DzoBdhxqbXTC1pfXNYi0-2" value="" style="sketch=0;points=[[0,0,0],[0.25,0,0],[0.5,0,0],[0.75,0,0],[1,0,0],[0,1,0],[0.25,1,0],[0.5,1,0],[0.75,1,0],[1,1,0],[0,0.25,0],[0,0.5,0],[0,0.75,0],[1,0.25,0],[1,0.5,0],[1,0.75,0]];outlineConnect=0;fontColor=#232F3E;gradientColor=#945DF2;gradientDirection=north;fillColor=#5A30B5;strokeColor=#ffffff;dashed=0;verticalLabelPosition=bottom;verticalAlign=top;align=center;html=1;fontSize=12;fontStyle=0;aspect=fixed;shape=mxgraph.aws4.resourceIcon;resIcon=mxgraph.aws4.api_gateway;" vertex="1" parent="DzoBdhxqbXTC1pfXNYi0-1">
                    <mxGeometry x="170" y="336" width="60" height="60" as="geometry"/>
                </mxCell>
                <mxCell id="DzoBdhxqbXTC1pfXNYi0-23" value="" style="edgeStyle=none;html=1;" edge="1" parent="DzoBdhxqbXTC1pfXNYi0-1" source="DzoBdhxqbXTC1pfXNYi0-6" target="DzoBdhxqbXTC1pfXNYi0-8">
                    <mxGeometry relative="1" as="geometry"/>
                </mxCell>
                <mxCell id="DzoBdhxqbXTC1pfXNYi0-24" style="edgeStyle=none;html=1;" edge="1" parent="DzoBdhxqbXTC1pfXNYi0-1" source="DzoBdhxqbXTC1pfXNYi0-6" target="DzoBdhxqbXTC1pfXNYi0-10">
                    <mxGeometry relative="1" as="geometry"/>
                </mxCell>
                <mxCell id="DzoBdhxqbXTC1pfXNYi0-6" value="" style="sketch=0;points=[[0,0,0],[0.25,0,0],[0.5,0,0],[0.75,0,0],[1,0,0],[0,1,0],[0.25,1,0],[0.5,1,0],[0.75,1,0],[1,1,0],[0,0.25,0],[0,0.5,0],[0,0.75,0],[1,0.25,0],[1,0.5,0],[1,0.75,0]];outlineConnect=0;fontColor=#232F3E;gradientColor=#F78E04;gradientDirection=north;fillColor=#D05C17;strokeColor=#ffffff;dashed=0;verticalLabelPosition=bottom;verticalAlign=top;align=center;html=1;fontSize=12;fontStyle=0;aspect=fixed;shape=mxgraph.aws4.resourceIcon;resIcon=mxgraph.aws4.lambda;" vertex="1" parent="DzoBdhxqbXTC1pfXNYi0-1">
                    <mxGeometry x="170" y="466" width="60" height="60" as="geometry"/>
                </mxCell>
                <mxCell id="DzoBdhxqbXTC1pfXNYi0-28" style="edgeStyle=none;html=1;dashed=1;" edge="1" parent="DzoBdhxqbXTC1pfXNYi0-1" source="DzoBdhxqbXTC1pfXNYi0-8" target="DzoBdhxqbXTC1pfXNYi0-14">
                    <mxGeometry relative="1" as="geometry">
                        <Array as="points">
                            <mxPoint x="169" y="710"/>
                            <mxPoint x="659" y="710"/>
                        </Array>
                    </mxGeometry>
                </mxCell>
                <mxCell id="DzoBdhxqbXTC1pfXNYi0-30" value="Two way bucket replication" style="edgeLabel;html=1;align=center;verticalAlign=middle;resizable=0;points=[];" vertex="1" connectable="0" parent="DzoBdhxqbXTC1pfXNYi0-28">
                    <mxGeometry x="-0.0441" y="2" relative="1" as="geometry">
                        <mxPoint y="1" as="offset"/>
                    </mxGeometry>
                </mxCell>
                <mxCell id="DzoBdhxqbXTC1pfXNYi0-8" value="" style="sketch=0;outlineConnect=0;fontColor=#232F3E;gradientColor=none;fillColor=#3F8624;strokeColor=none;dashed=0;verticalLabelPosition=bottom;verticalAlign=top;align=center;html=1;fontSize=12;fontStyle=0;aspect=fixed;pointerEvents=1;shape=mxgraph.aws4.bucket;" vertex="1" parent="DzoBdhxqbXTC1pfXNYi0-1">
                    <mxGeometry x="140" y="601" width="57.69" height="60" as="geometry"/>
                </mxCell>
                <mxCell id="DzoBdhxqbXTC1pfXNYi0-29" style="edgeStyle=none;html=1;entryX=0;entryY=0.5;entryDx=0;entryDy=0;entryPerimeter=0;dashed=1;" edge="1" parent="DzoBdhxqbXTC1pfXNYi0-1" source="DzoBdhxqbXTC1pfXNYi0-10" target="DzoBdhxqbXTC1pfXNYi0-15">
                    <mxGeometry relative="1" as="geometry"/>
                </mxCell>
                <mxCell id="DzoBdhxqbXTC1pfXNYi0-31" value="Global table&lt;br&gt;(multi-master replicas)" style="edgeLabel;html=1;align=center;verticalAlign=middle;resizable=0;points=[];" vertex="1" connectable="0" parent="DzoBdhxqbXTC1pfXNYi0-29">
                    <mxGeometry x="-0.0818" y="3" relative="1" as="geometry">
                        <mxPoint y="1" as="offset"/>
                    </mxGeometry>
                </mxCell>
                <mxCell id="DzoBdhxqbXTC1pfXNYi0-10" value="" style="outlineConnect=0;dashed=0;verticalLabelPosition=bottom;verticalAlign=top;align=center;html=1;shape=mxgraph.aws3.dynamo_db;fillColor=#2E73B8;gradientColor=none;" vertex="1" parent="DzoBdhxqbXTC1pfXNYi0-1">
                    <mxGeometry x="240" y="596" width="60" height="70" as="geometry"/>
                </mxCell>
                <mxCell id="DzoBdhxqbXTC1pfXNYi0-25" style="edgeStyle=none;html=1;entryX=0.5;entryY=0;entryDx=0;entryDy=0;entryPerimeter=0;" edge="1" parent="DzoBdhxqbXTC1pfXNYi0-1" source="DzoBdhxqbXTC1pfXNYi0-12" target="DzoBdhxqbXTC1pfXNYi0-13">
                    <mxGeometry relative="1" as="geometry"/>
                </mxCell>
                <mxCell id="DzoBdhxqbXTC1pfXNYi0-12" value="" style="sketch=0;points=[[0,0,0],[0.25,0,0],[0.5,0,0],[0.75,0,0],[1,0,0],[0,1,0],[0.25,1,0],[0.5,1,0],[0.75,1,0],[1,1,0],[0,0.25,0],[0,0.5,0],[0,0.75,0],[1,0.25,0],[1,0.5,0],[1,0.75,0]];outlineConnect=0;fontColor=#232F3E;gradientColor=#945DF2;gradientDirection=north;fillColor=#5A30B5;strokeColor=#ffffff;dashed=0;verticalLabelPosition=bottom;verticalAlign=top;align=center;html=1;fontSize=12;fontStyle=0;aspect=fixed;shape=mxgraph.aws4.resourceIcon;resIcon=mxgraph.aws4.api_gateway;" vertex="1" parent="DzoBdhxqbXTC1pfXNYi0-1">
                    <mxGeometry x="560" y="336" width="60" height="60" as="geometry"/>
                </mxCell>
                <mxCell id="DzoBdhxqbXTC1pfXNYi0-26" style="edgeStyle=none;html=1;" edge="1" parent="DzoBdhxqbXTC1pfXNYi0-1" source="DzoBdhxqbXTC1pfXNYi0-13" target="DzoBdhxqbXTC1pfXNYi0-15">
                    <mxGeometry relative="1" as="geometry"/>
                </mxCell>
                <mxCell id="DzoBdhxqbXTC1pfXNYi0-27" style="edgeStyle=none;html=1;" edge="1" parent="DzoBdhxqbXTC1pfXNYi0-1" source="DzoBdhxqbXTC1pfXNYi0-13" target="DzoBdhxqbXTC1pfXNYi0-14">
                    <mxGeometry relative="1" as="geometry"/>
                </mxCell>
                <mxCell id="DzoBdhxqbXTC1pfXNYi0-13" value="" style="sketch=0;points=[[0,0,0],[0.25,0,0],[0.5,0,0],[0.75,0,0],[1,0,0],[0,1,0],[0.25,1,0],[0.5,1,0],[0.75,1,0],[1,1,0],[0,0.25,0],[0,0.5,0],[0,0.75,0],[1,0.25,0],[1,0.5,0],[1,0.75,0]];outlineConnect=0;fontColor=#232F3E;gradientColor=#F78E04;gradientDirection=north;fillColor=#D05C17;strokeColor=#ffffff;dashed=0;verticalLabelPosition=bottom;verticalAlign=top;align=center;html=1;fontSize=12;fontStyle=0;aspect=fixed;shape=mxgraph.aws4.resourceIcon;resIcon=mxgraph.aws4.lambda;" vertex="1" parent="DzoBdhxqbXTC1pfXNYi0-1">
                    <mxGeometry x="560" y="466" width="60" height="60" as="geometry"/>
                </mxCell>
                <mxCell id="DzoBdhxqbXTC1pfXNYi0-14" value="" style="sketch=0;outlineConnect=0;fontColor=#232F3E;gradientColor=none;fillColor=#3F8624;strokeColor=none;dashed=0;verticalLabelPosition=bottom;verticalAlign=top;align=center;html=1;fontSize=12;fontStyle=0;aspect=fixed;pointerEvents=1;shape=mxgraph.aws4.bucket;" vertex="1" parent="DzoBdhxqbXTC1pfXNYi0-1">
                    <mxGeometry x="630" y="599" width="57.69" height="60" as="geometry"/>
                </mxCell>
                <mxCell id="DzoBdhxqbXTC1pfXNYi0-15" value="" style="outlineConnect=0;dashed=0;verticalLabelPosition=bottom;verticalAlign=top;align=center;html=1;shape=mxgraph.aws3.dynamo_db;fillColor=#2E73B8;gradientColor=none;" vertex="1" parent="DzoBdhxqbXTC1pfXNYi0-1">
                    <mxGeometry x="520" y="596" width="60" height="70" as="geometry"/>
                </mxCell>
                <mxCell id="DzoBdhxqbXTC1pfXNYi0-19" style="edgeStyle=none;html=1;entryX=0.5;entryY=0;entryDx=0;entryDy=0;entryPerimeter=0;exitX=0.5;exitY=1;exitDx=0;exitDy=0;exitPerimeter=0;" edge="1" parent="DzoBdhxqbXTC1pfXNYi0-1" source="DzoBdhxqbXTC1pfXNYi0-16" target="DzoBdhxqbXTC1pfXNYi0-2">
                    <mxGeometry relative="1" as="geometry">
                        <Array as="points">
                            <mxPoint x="410" y="240"/>
                            <mxPoint x="200" y="240"/>
                        </Array>
                    </mxGeometry>
                </mxCell>
                <mxCell id="DzoBdhxqbXTC1pfXNYi0-36" style="edgeStyle=none;html=1;entryX=0.343;entryY=0.067;entryDx=0;entryDy=0;entryPerimeter=0;fontColor=#FFFFFF;" edge="1" parent="DzoBdhxqbXTC1pfXNYi0-1" target="DzoBdhxqbXTC1pfXNYi0-35">
                    <mxGeometry relative="1" as="geometry">
                        <mxPoint x="410" y="220" as="sourcePoint"/>
                        <Array as="points">
                            <mxPoint x="410" y="240"/>
                            <mxPoint x="590" y="240"/>
                        </Array>
                    </mxGeometry>
                </mxCell>
                <mxCell id="DzoBdhxqbXTC1pfXNYi0-16" value="" style="sketch=0;points=[[0,0,0],[0.25,0,0],[0.5,0,0],[0.75,0,0],[1,0,0],[0,1,0],[0.25,1,0],[0.5,1,0],[0.75,1,0],[1,1,0],[0,0.25,0],[0,0.5,0],[0,0.75,0],[1,0.25,0],[1,0.5,0],[1,0.75,0]];outlineConnect=0;fontColor=#232F3E;gradientColor=#945DF2;gradientDirection=north;fillColor=#5A30B5;strokeColor=#ffffff;dashed=0;verticalLabelPosition=bottom;verticalAlign=top;align=center;html=1;fontSize=12;fontStyle=0;aspect=fixed;shape=mxgraph.aws4.resourceIcon;resIcon=mxgraph.aws4.route_53;" vertex="1" parent="DzoBdhxqbXTC1pfXNYi0-1">
                    <mxGeometry x="380" y="160" width="60" height="60" as="geometry"/>
                </mxCell>
                <mxCell id="DzoBdhxqbXTC1pfXNYi0-21" value="Weighted DNS Routing" style="text;html=1;strokeColor=none;fillColor=none;align=center;verticalAlign=middle;whiteSpace=wrap;rounded=0;dashed=1;dashPattern=1 1;" vertex="1" parent="DzoBdhxqbXTC1pfXNYi0-1">
                    <mxGeometry x="354" y="250" width="96" height="20" as="geometry"/>
                </mxCell>
                <mxCell id="DzoBdhxqbXTC1pfXNYi0-33" value="&lt;font color=&quot;#ffffff&quot;&gt;&amp;nbsp; &amp;nbsp; &amp;nbsp; &amp;nbsp; &amp;nbsp; &amp;nbsp; &amp;nbsp;AWS Account&lt;/font&gt;" style="sketch=0;outlineConnect=0;fontColor=#232F3E;gradientColor=none;fillColor=#BF0816;strokeColor=none;dashed=0;verticalLabelPosition=bottom;verticalAlign=top;align=center;html=1;fontSize=12;fontStyle=0;aspect=fixed;pointerEvents=1;shape=mxgraph.aws4.organizations_account;" vertex="1" parent="DzoBdhxqbXTC1pfXNYi0-1">
                    <mxGeometry x="10" y="130" width="28.46" height="30" as="geometry"/>
                </mxCell>
                <mxCell id="DzoBdhxqbXTC1pfXNYi0-34" value="Primary Region" style="sketch=0;outlineConnect=0;gradientColor=none;html=1;whiteSpace=wrap;fontSize=12;fontStyle=0;shape=mxgraph.aws4.group;grIcon=mxgraph.aws4.group_region;strokeColor=#879196;fillColor=none;verticalAlign=top;align=left;spacingLeft=30;fontColor=#879196;dashed=1;" vertex="1" parent="DzoBdhxqbXTC1pfXNYi0-1">
                    <mxGeometry x="90" y="310" width="350" height="450" as="geometry"/>
                </mxCell>
                <mxCell id="DzoBdhxqbXTC1pfXNYi0-35" value="Failover Region" style="sketch=0;outlineConnect=0;gradientColor=none;html=1;whiteSpace=wrap;fontSize=12;fontStyle=0;shape=mxgraph.aws4.group;grIcon=mxgraph.aws4.group_region;strokeColor=#879196;fillColor=none;verticalAlign=top;align=left;spacingLeft=30;fontColor=#879196;dashed=1;" vertex="1" parent="DzoBdhxqbXTC1pfXNYi0-1">
                    <mxGeometry x="470" y="310" width="350" height="450" as="geometry"/>
                </mxCell>
            </root>
        </mxGraphModel>
    </diagram>
</mxfile>